# xmcd
#
# Track frame offsets:
#	150
#	11923
#	24783
#	38942
#	51008
#	80752
#	93358
#	107475
#	119051
#	130571
#	142183
#	156175
#	167876
#	183066
#	196688
#	209708
#
# Disc length: 3113 seconds
#
# Revision: 1
# Processed by: cddbd v1.4PL0 Copyright (c) Steve Scherf et al.
# Submitted via: audiograbber 1.80.04
#
DISCID=d80c2710
DTITLE=Woody Guthrie - The Collection Cd2
DYEAR=2000
DGENRE=Country
TTITLE0=This Land Is Your Land
TTITLE1=Gypsy Davy
TTITLE2=Dusty Old Dust
TTITLE3=Talking Dust Bowls Blues
TTITLE4=Tom Joad
TTITLE5=I Ain't Got No Home In This World Anymore
TTITLE6=Jarama Valley
TTITLE7=Blow The Man Down
TTITLE8=I Ride An Old Paint
TTITLE9=Hard Aint It Hard
TTITLE10=Pretty Boy Floyd
TTITLE11=Do-Re-Me
TTITLE12=The Greatest Dust Storm
TTITLE13=Blowin Down This Road
TTITLE14=House Of The Rising Sun
TTITLE15=Woody Guthries Dust Bowl Story
EXTD=
EXTT0=
EXTT1=
EXTT2=
EXTT3=
EXTT4=
EXTT5=
EXTT6=
EXTT7=
EXTT8=
EXTT9=
EXTT10=
EXTT11=
EXTT12=
EXTT13=
EXTT14=
EXTT15=
PLAYORDER=
